<svg width="67" height="62" viewBox="0 0 67 62" fill="none" xmlns="http://www.w3.org/2000/svg">
<rect width="67" height="62" rx="8" fill="#1D1D1D"/>
<path d="M16.735 41.465C14.8337 41.465 13.3973 41.1343 12.426 40.473C11.4753 39.8117 11 39.0057 11 38.055C11 37.3523 11.2067 36.7943 11.62 36.381C12.054 35.947 12.6223 35.73 13.325 35.73C13.4903 35.73 13.6557 35.7507 13.821 35.792C13.9863 35.8127 14.1 35.823 14.162 35.823L14.565 35.885V40.535C14.7097 40.6177 14.8543 40.6693 14.999 40.69C15.3503 40.7933 15.7223 40.845 16.115 40.845C18.595 40.845 19.835 38.83 19.835 34.8V20.23L17.975 19.765V19.3H26.81V19.765L24.95 20.23V34.8C24.95 36.9493 24.2783 38.6027 22.935 39.76C21.5917 40.8967 19.525 41.465 16.735 41.465ZM30.22 41.31C29.6 41.31 29.0523 41.0827 28.577 40.628C28.1223 40.1527 27.895 39.605 27.895 38.985C27.895 38.365 28.1223 37.8277 28.577 37.373C29.0523 36.8977 29.6 36.66 30.22 36.66C30.84 36.66 31.3773 36.8977 31.832 37.373C32.3073 37.8277 32.545 38.365 32.545 38.985C32.545 39.605 32.3073 40.1527 31.832 40.628C31.3773 41.0827 30.84 41.31 30.22 41.31ZM35.4973 40.535L37.3573 40.07V20.23L35.4973 19.765V19.3H43.7123C47.2256 19.3 49.7573 19.8373 51.3073 20.912C52.8573 21.966 53.6323 23.4437 53.6323 25.345C53.6323 26.6263 53.2913 27.67 52.6093 28.476C51.9273 29.2613 51.0489 29.8503 49.9743 30.243C48.8376 30.677 47.6286 30.9043 46.3473 30.925V31.08C47.1119 31.1213 47.7836 31.235 48.3623 31.421C49.8089 31.8757 50.7906 32.692 51.3073 33.87L54.0973 40.07L55.6473 40.535V41H51.3073C49.6126 41 48.3726 40.1217 47.5873 38.365L44.4873 31.39H42.4723V40.07L44.6423 40.535V41H35.4973V40.535ZM43.7123 30.615C45.1589 30.615 46.2956 30.1603 47.1223 29.251C47.9489 28.3417 48.3623 27.0397 48.3623 25.345C48.3623 23.6503 47.9489 22.3483 47.1223 21.439C46.2956 20.5297 45.1589 20.075 43.7123 20.075H42.4723V30.615H43.7123Z" fill="#08FDD8"/>
</svg>
