<svg width="81" height="81" viewBox="0 0 81 81" fill="none" xmlns="http://www.w3.org/2000/svg">
<path d="M39.7238 37.935H33.6015V27.6817H40.8645C44.8132 27.6817 47.0543 29.4435 47.0543 32.6295C47.0543 36.0315 44.4454 37.935 39.717 37.935H39.7238ZM40.8172 42.0052H33.6049V53.3047H41.1345C46.0586 53.3047 48.6675 51.3304 48.6675 47.6179C48.6675 43.9054 45.9844 42.0052 40.8172 42.0052ZM81 38.4412V42.552C77.193 42.9165 74.8676 45.738 73.4873 50.2065C72.1136 54.6581 71.9246 60.1189 72.0697 64.3342C72.2216 68.7217 68.8027 72.7717 64.1824 72.7717H16.8244C12.2006 72.7717 8.78175 68.7217 8.937 64.3342C9.08212 60.1189 8.89312 54.6581 7.5195 50.2065C6.13575 45.738 3.807 42.9165 0 42.552V38.4412C3.807 38.0767 6.13912 35.2552 7.51613 30.7867C8.89312 26.3351 9.08213 20.8744 8.93363 16.659C8.78175 12.2715 12.2006 8.2215 16.8244 8.2215H64.1824C68.8061 8.2215 72.2216 12.2715 72.0697 16.659C71.9246 20.8744 72.1136 26.3351 73.4873 30.7867C74.8676 35.2552 77.193 38.0767 81 38.4412ZM54.2464 47.9486C54.2464 43.3789 51.03 40.0747 46.2544 39.5516V39.3592C49.7644 38.7889 52.5184 35.5286 52.5184 31.8904C52.5184 26.703 48.4245 23.3246 42.1841 23.3246H28.1441V57.6551H42.255C49.7408 57.6551 54.2464 53.9899 54.2464 47.9486Z" fill="#8892B0"/>
</svg>
