<svg width="81" height="81" viewBox="0 0 81 81" fill="none" xmlns="http://www.w3.org/2000/svg">
<path d="M59.0414 29.7422C61.3128 28.0949 63.0045 25.771 63.8741 23.1034C64.7438 20.4358 64.7469 17.5614 63.8828 14.8919C63.0187 12.2225 61.3319 9.89505 59.0641 8.24302C56.7962 6.59098 54.0636 5.69916 51.2578 5.69531H29.7422C26.9364 5.69916 24.2038 6.59098 21.9359 8.24302C19.668 9.89505 17.9812 12.2225 17.1172 14.8919C16.2531 17.5614 16.2561 20.4358 17.1258 23.1034C17.9955 25.771 19.6872 28.0949 21.9586 29.7422C20.2533 30.9703 18.8644 32.5862 17.9065 34.4567C16.9485 36.3271 16.449 38.3985 16.449 40.5C16.449 42.6015 16.9485 44.6729 17.9065 46.5433C18.8644 48.4138 20.2533 50.0297 21.9586 51.2578C20.114 52.5908 18.6427 54.3751 17.6856 56.4397C16.7285 58.5044 16.3176 60.7803 16.4924 63.0494C16.6671 65.3184 17.4217 67.5045 18.6837 69.3983C19.9457 71.2921 21.6729 72.83 23.6998 73.8647C25.7267 74.8995 27.9854 75.3964 30.2594 75.3078C32.5334 75.2192 34.7466 74.5482 36.6869 73.3589C38.6272 72.1696 40.2295 70.502 41.3404 68.5158C42.4513 66.5296 43.0335 64.2914 43.0312 62.0156V50.9098C44.4106 52.0736 46.0126 52.9443 47.7395 53.4687C49.4664 53.9932 51.282 54.1604 53.0756 53.9601C54.8692 53.7598 56.6033 53.1963 58.172 52.3039C59.7407 51.4115 61.1112 50.209 62.1999 48.7696C63.2886 47.3301 64.0727 45.6841 64.5043 43.9317C64.936 42.1793 65.0062 40.3573 64.7107 38.5769C64.4151 36.7965 63.76 35.095 62.7853 33.5761C61.8106 32.0571 60.5368 30.7527 59.0414 29.7422ZM59.4844 18.9844C59.476 21.1636 58.6066 23.2512 57.0656 24.7922C55.5247 26.3332 53.437 27.2026 51.2578 27.2109H43.0312V10.7578H51.2578C53.437 10.7661 55.5247 11.6355 57.0656 13.1765C58.6066 14.7175 59.476 16.8051 59.4844 18.9844ZM21.5156 18.9844C21.5239 16.8051 22.3933 14.7175 23.9343 13.1765C25.4753 11.6355 27.5629 10.7661 29.7422 10.7578H37.9687V27.2109H29.7422C27.5629 27.2026 25.4753 26.3332 23.9343 24.7922C22.3933 23.2512 21.5239 21.1636 21.5156 18.9844ZM21.5156 40.5C21.5239 38.3207 22.3933 36.2331 23.9343 34.6922C25.4753 33.1512 27.5629 32.2818 29.7422 32.2734H37.9687V48.7266H29.7422C27.5629 48.7182 25.4753 47.8488 23.9343 46.3079C22.3933 44.7669 21.5239 42.6793 21.5156 40.5ZM29.7422 70.2422C27.5604 70.2422 25.4679 69.3755 23.9251 67.8327C22.3823 66.2899 21.5156 64.1974 21.5156 62.0156C21.5156 59.8338 22.3823 57.7413 23.9251 56.1986C25.4679 54.6558 27.5604 53.7891 29.7422 53.7891H37.9687V62.0156C37.9604 64.1949 37.091 66.2825 35.55 67.8235C34.009 69.3645 31.9214 70.2339 29.7422 70.2422ZM51.2578 48.7266C49.076 48.7266 46.9835 47.8598 45.4407 46.3171C43.898 44.7743 43.0312 42.6818 43.0312 40.5C43.0312 38.3182 43.898 36.2257 45.4407 34.6829C46.9835 33.1402 49.076 32.2734 51.2578 32.2734C53.4396 32.2734 55.5321 33.1402 57.0749 34.6829C58.6176 36.2257 59.4844 38.3182 59.4844 40.5C59.4844 42.6818 58.6176 44.7743 57.0749 46.3171C55.5321 47.8598 53.4396 48.7266 51.2578 48.7266Z" fill="#8892B0"/>
</svg>
