<svg width="41" height="41" viewBox="0 0 41 41" fill="none" xmlns="http://www.w3.org/2000/svg">
<path d="M3.74648 10.8273L20.5 1.1547L37.2535 10.8273V30.1726L20.5 39.8453L3.74648 30.1726V10.8273Z" stroke="#08FDD8" stroke-width="2"/>
<path d="M11.775 25.225C10.855 25.225 10.16 25.065 9.69 24.745C9.23 24.425 9 24.035 9 23.575C9 23.235 9.1 22.965 9.3 22.765C9.51 22.555 9.785 22.45 10.125 22.45C10.205 22.45 10.285 22.46 10.365 22.48C10.445 22.49 10.5 22.495 10.53 22.495L10.725 22.525V24.775C10.795 24.815 10.865 24.84 10.935 24.85C11.105 24.9 11.285 24.925 11.475 24.925C12.675 24.925 13.275 23.95 13.275 22V14.95L12.375 14.725V14.5H16.65V14.725L15.75 14.95V22C15.75 23.04 15.425 23.84 14.775 24.4C14.125 24.95 13.125 25.225 11.775 25.225ZM18.3 25.15C18 25.15 17.735 25.04 17.505 24.82C17.285 24.59 17.175 24.325 17.175 24.025C17.175 23.725 17.285 23.465 17.505 23.245C17.735 23.015 18 22.9 18.3 22.9C18.6 22.9 18.86 23.015 19.08 23.245C19.31 23.465 19.425 23.725 19.425 24.025C19.425 24.325 19.31 24.59 19.08 24.82C18.86 25.04 18.6 25.15 18.3 25.15ZM20.8535 24.775L21.7535 24.55V14.95L20.8535 14.725V14.5H24.8285C26.5285 14.5 27.7535 14.76 28.5035 15.28C29.2535 15.79 29.6285 16.505 29.6285 17.425C29.6285 18.045 29.4635 18.55 29.1335 18.94C28.8035 19.32 28.3785 19.605 27.8585 19.795C27.3085 20.005 26.7235 20.115 26.1035 20.125V20.2C26.4735 20.22 26.7985 20.275 27.0785 20.365C27.7785 20.585 28.2535 20.98 28.5035 21.55L29.8535 24.55L30.6035 24.775V25H28.5035C27.6835 25 27.0835 24.575 26.7035 23.725L25.2035 20.35H24.2285V24.55L25.2785 24.775V25H20.8535V24.775ZM24.8285 19.975C25.5285 19.975 26.0785 19.755 26.4785 19.315C26.8785 18.875 27.0785 18.245 27.0785 17.425C27.0785 16.605 26.8785 15.975 26.4785 15.535C26.0785 15.095 25.5285 14.875 24.8285 14.875H24.2285V19.975H24.8285Z" fill="#08FDD8"/>
</svg>
