<svg width="81" height="81" viewBox="0 0 81 81" fill="none" xmlns="http://www.w3.org/2000/svg">
<path d="M16.2 64.8V56.7H8.10005V64.8H4.05005V44.55H8.10005V52.65H16.2V44.55H20.25V64.8H16.2ZM28.35 64.8V48.6H22.68V44.55H37.6651V48.6H32.4001V64.8H28.35ZM40.5 64.8V44.55H44.55L50.2201 58.32H50.625L56.7001 44.55H60.7501V64.8H56.7001V52.245H56.2951L51.8401 62.37H49.41L44.9551 52.245H44.55V64.8H40.5ZM76.9501 64.8H64.8001V44.55H68.8501V60.75H76.9501V64.8ZM38.07 17.01L28.755 26.325L38.07 35.64L35.6401 40.5L21.465 26.325L35.6401 12.15L38.07 17.01ZM42.9301 35.64L52.245 26.325L42.9301 17.01L45.3601 12.15L59.535 26.325L45.3601 40.5L42.9301 35.64Z" fill="#8892B0"/>
</svg>
