<svg width="81" height="81" viewBox="0 0 81 81" fill="none" xmlns="http://www.w3.org/2000/svg">
<path d="M70.875 70.875H10.125V10.125H70.875V70.875ZM30.7125 58.158L26.0955 61.0065C26.8144 62.586 27.9821 63.9191 29.4502 64.8439C31.0466 65.7585 32.859 66.2276 34.6984 66.1939C35.6636 66.1871 36.6221 66.0758 37.5638 65.8564C38.5359 65.6172 39.4467 65.1755 40.2365 64.5602C41.0263 63.9449 41.6773 63.1698 42.147 62.2856C43.092 60.0581 43.443 57.6214 43.1595 55.2184V53.8177C43.1764 50.3516 43.1595 46.8248 43.1595 43.4093V38.0329H37.4625V54.5602C37.6313 56.2477 37.5098 57.9454 37.1014 59.589C36.8616 60.0518 36.4907 60.4337 36.0351 60.687C35.5795 60.9403 35.0594 61.0538 34.5398 61.0132C34.0638 61.012 33.5907 60.9403 33.1357 60.8006C32.2217 60.3227 31.4848 59.5645 31.0331 58.6373L30.9217 58.4483C30.8171 58.2694 30.7463 58.1445 30.7125 58.1445V58.158ZM50.7904 57.483L46.1565 60.1391C46.5345 60.9694 47.061 61.7254 47.7022 62.3734C47.8609 62.5489 48.0397 62.7379 48.2051 62.9471C50.4697 64.9721 53.433 66.0454 56.4705 65.9408C58.3844 66.1294 60.3077 65.6913 61.9511 64.6925C63.5945 63.6936 64.8691 62.1881 65.583 60.4024V60.3754C65.9677 59.0254 66.0285 57.6079 65.7619 56.2309L65.8766 56.3962C65.3771 53.2609 63.1058 51.084 58.2761 49.1231C57.9015 48.9476 57.5134 48.7856 57.1354 48.6169C55.6335 47.9689 54.216 47.3614 53.7233 46.2544C53.5037 45.6849 53.4636 45.0619 53.6085 44.469C53.7779 43.8934 54.1432 43.3951 54.6412 43.0604C55.1392 42.7258 55.7386 42.5758 56.3355 42.6364C56.7101 42.6364 57.0848 42.6904 57.4459 42.7984C58.5596 43.1696 59.454 44.0033 59.9164 45.0799C62.532 43.3688 62.532 43.3687 64.3579 42.2314C63.9401 41.5184 63.4431 40.8549 62.8762 40.2536C62.021 39.3369 60.9698 38.6252 59.801 38.1717C58.6321 37.7182 57.376 37.5346 56.1262 37.6346H55.7213L53.9393 37.8608C52.2657 38.2363 50.7516 39.1262 49.6091 40.4055C48.9444 41.2368 48.4535 42.1932 48.1655 43.2179C47.8776 44.2425 47.7985 45.3147 47.9329 46.3705C48.0673 47.4264 48.4125 48.4444 48.948 49.3643C49.4836 50.2842 50.1984 51.087 51.0503 51.7253C52.5285 52.7378 54.1215 53.568 55.7989 54.1991C57.9623 55.1104 59.8286 55.8866 60.2066 57.3075C60.3195 57.7135 60.3371 58.14 60.258 58.5539C60.179 58.9678 60.0055 59.3578 59.751 59.6936C59.2983 60.1406 58.7539 60.4838 58.1554 60.6994C57.5569 60.9151 56.9186 60.998 56.2849 60.9424C55.9317 60.9413 55.5789 60.9188 55.2285 60.8749C54.2854 60.6636 53.3995 60.2499 52.6321 59.6625C51.8646 59.0751 51.2339 58.328 50.7836 57.4729L50.7904 57.483Z" fill="#8892B0"/>
</svg>
