<svg width="81" height="81" viewBox="0 0 81 81" fill="none" xmlns="http://www.w3.org/2000/svg">
<path d="M73.2375 25.0388C73.2713 25.1063 73.2713 25.2075 73.2713 25.3088V39.7875C73.2713 40.125 73.0688 40.53 72.765 40.6988L60.5813 47.7188V61.59C60.5813 61.9613 60.4125 62.2987 60.075 62.5012L34.695 77.115C34.6275 77.1488 34.56 77.25 34.4925 77.25H33.75C33.75 77.25 33.75 77.1488 33.615 77.115L8.23503 62.5012C8.07949 62.4056 7.95122 62.2715 7.86255 62.1119C7.77388 61.9523 7.72781 61.7726 7.72877 61.59V18.1875C7.72877 18.0188 7.72877 17.9175 7.76252 17.85C7.76252 17.8163 7.79627 17.7825 7.79627 17.7488C7.79627 17.6813 7.83002 17.6475 7.86377 17.58C7.86377 17.5463 7.89752 17.5125 7.93127 17.4788L8.03253 17.3775L8.13378 17.2763C8.16753 17.2425 8.20128 17.2088 8.23503 17.2088L20.925 9.885C21.2625 9.75 21.6675 9.75 21.9375 9.885L34.695 17.2088C34.7288 17.2425 34.7625 17.2425 34.7963 17.2763L34.8975 17.3775L34.9988 17.4788C35.0325 17.5125 35.0663 17.5463 35.0663 17.58C35.1 17.6475 35.1338 17.6813 35.1338 17.7488C35.1338 17.7825 35.1675 17.8163 35.1675 17.85C35.2013 17.9513 35.2013 18.0188 35.2013 18.1875V45.1875L45.7988 39.18V25.3088C45.7988 25.2075 45.7988 25.1063 45.8325 25.0388L45.8663 24.9375C45.8663 24.9375 45.9 24.8363 45.9338 24.7688C45.9338 24.735 45.9675 24.7013 46.0013 24.6675L46.1025 24.5663L46.2038 24.465C46.2375 24.4313 46.2713 24.3975 46.305 24.3975L59.0625 17.0738C59.3325 16.8713 59.7375 16.8713 60.075 17.0738L72.765 24.3975C72.7988 24.3975 72.8325 24.4313 72.8663 24.465L72.9675 24.5663L73.0688 24.6675C73.1025 24.7013 73.1025 24.735 73.1363 24.7688C73.17 24.8363 73.17 24.9375 73.2038 24.9375C73.2375 24.9375 73.2375 24.9375 73.2375 25.0388ZM71.1788 39.18V27.1313L60.5813 33.2063V45.1875L71.1788 39.18ZM58.4888 60.9825V48.9L35.2013 62.1975V74.3812L58.4888 60.9825ZM9.82127 19.875V60.9825L33.1088 74.3812V62.1975L20.9588 55.3125H20.925C20.8913 55.3125 20.8575 55.3125 20.8238 55.2113C20.79 55.2113 20.7563 55.1775 20.7225 55.1437L20.6213 55.0425C20.5875 55.0088 20.5875 54.975 20.5538 54.9413C20.52 54.8738 20.52 54.84 20.4863 54.8063C20.4863 54.7388 20.4525 54.705 20.4525 54.6713C20.4188 54.6375 20.4188 54.57 20.4188 54.5363V26.0175L9.82127 19.875ZM21.465 12.045L10.9013 18.1875L21.465 24.195L32.0625 18.1875L21.465 12.045ZM33.1088 46.47V19.875L22.5113 26.0175V52.5788L33.1088 46.47ZM59.535 19.2L48.9375 25.3088L59.535 31.3838L70.0988 25.3088L59.535 19.2ZM58.4888 33.2063L47.8913 27.1313V39.18L58.4888 45.1875V33.2063ZM34.155 60.375L57.375 47.0775L46.845 41.0025L23.625 54.4012L34.155 60.375Z" fill="#8892B0"/>
</svg>
