<svg width="113" height="42" viewBox="0 0 113 42" fill="none" xmlns="http://www.w3.org/2000/svg">
<path d="M34.735 31.465C32.8337 31.465 31.3973 31.1343 30.426 30.473C29.4753 29.8117 29 29.0057 29 28.055C29 27.3523 29.2067 26.7943 29.62 26.381C30.054 25.947 30.6223 25.73 31.325 25.73C31.4903 25.73 31.6557 25.7507 31.821 25.792C31.9863 25.8127 32.1 25.823 32.162 25.823L32.565 25.885V30.535C32.7097 30.6177 32.8543 30.6693 32.999 30.69C33.3503 30.7933 33.7223 30.845 34.115 30.845C36.595 30.845 37.835 28.83 37.835 24.8V10.23L35.975 9.765V9.3H44.81V9.765L42.95 10.23V24.8C42.95 26.9493 42.2783 28.6027 40.935 29.76C39.5917 30.8967 37.525 31.465 34.735 31.465ZM48.22 31.31C47.6 31.31 47.0523 31.0827 46.577 30.628C46.1223 30.1527 45.895 29.605 45.895 28.985C45.895 28.365 46.1223 27.8277 46.577 27.373C47.0523 26.8977 47.6 26.66 48.22 26.66C48.84 26.66 49.3773 26.8977 49.832 27.373C50.3073 27.8277 50.545 28.365 50.545 28.985C50.545 29.605 50.3073 30.1527 49.832 30.628C49.3773 31.0827 48.84 31.31 48.22 31.31ZM53.4973 30.535L55.3573 30.07V10.23L53.4973 9.765V9.3H61.7123C65.2256 9.3 67.7573 9.83733 69.3073 10.912C70.8573 11.966 71.6323 13.4437 71.6323 15.345C71.6323 16.6263 71.2913 17.67 70.6093 18.476C69.9273 19.2613 69.0489 19.8503 67.9743 20.243C66.8376 20.677 65.6286 20.9043 64.3473 20.925V21.08C65.1119 21.1213 65.7836 21.235 66.3623 21.421C67.8089 21.8757 68.7906 22.692 69.3073 23.87L72.0973 30.07L73.6473 30.535V31H69.3073C67.6126 31 66.3726 30.1217 65.5873 28.365L62.4873 21.39H60.4723V30.07L62.6423 30.535V31H53.4973V30.535ZM61.7123 20.615C63.1589 20.615 64.2956 20.1603 65.1223 19.251C65.9489 18.3417 66.3623 17.0397 66.3623 15.345C66.3623 13.6503 65.9489 12.3483 65.1223 11.439C64.2956 10.5297 63.1589 10.075 61.7123 10.075H60.4723V20.615H61.7123Z" fill="#08FDD8"/>
<path d="M6.16761 11.9318L6.28693 11.25L12.2358 8.45455L12.0653 9.54545L7.5142 11.5739L7.5483 11.5057L7.53125 11.6761L7.49716 11.608L11.3835 13.6364L11.196 14.7273L6.16761 11.9318ZM12.8761 17.4545L14.3846 8.45455H15.3562L15.1857 9.49432H15.305C15.396 9.38068 15.521 9.2358 15.68 9.05966C15.842 8.88068 16.0593 8.72159 16.332 8.58239C16.6076 8.44034 16.9585 8.36932 17.3846 8.36932C17.9357 8.36932 18.3974 8.5071 18.7695 8.78267C19.1417 9.05824 19.4045 9.44886 19.5579 9.95455C19.7113 10.4602 19.7312 11.0568 19.6175 11.7443C19.5039 12.4375 19.2866 13.0384 18.9656 13.5469C18.6445 14.0526 18.2525 14.4446 17.7894 14.723C17.3263 14.9986 16.8221 15.1364 16.2766 15.1364C15.8562 15.1364 15.5309 15.0668 15.3008 14.9276C15.0707 14.7855 14.9031 14.625 14.7979 14.446C14.6928 14.2642 14.6119 14.1136 14.555 13.9943H14.4698L13.8903 17.4545H12.8761ZM14.8278 11.7273C14.7482 12.2216 14.7482 12.6577 14.8278 13.0355C14.9102 13.4105 15.0735 13.7045 15.3178 13.9176C15.565 14.1278 15.8903 14.233 16.2937 14.233C16.7141 14.233 17.082 14.1222 17.3974 13.9006C17.7156 13.6761 17.9769 13.375 18.1815 12.9972C18.3888 12.6165 18.5323 12.1932 18.6119 11.7273C18.6857 11.267 18.6829 10.8523 18.6033 10.483C18.5238 10.1108 18.3619 9.81676 18.1175 9.60085C17.8732 9.3821 17.538 9.27273 17.1119 9.27273C16.7028 9.27273 16.3406 9.37642 16.0252 9.58381C15.7127 9.78835 15.4542 10.0753 15.2496 10.4446C15.0479 10.8111 14.9073 11.2386 14.8278 11.7273ZM27.1037 11.9318L21.1548 14.7273L21.3423 13.6364L25.8764 11.608L25.8423 11.6761L25.8594 11.5057L25.8935 11.5739L22.0241 9.54545L22.1946 8.45455L27.223 11.25L27.1037 11.9318Z" fill="#727272"/>
<path d="M80.1676 27.9318L80.2869 27.25L86.2358 24.4545L86.0653 25.5455L81.5142 27.5739L81.5483 27.5057L81.5312 27.6761L81.4972 27.608L85.3835 29.6364L85.196 30.7273L80.1676 27.9318ZM91.8874 21.8636L87.3533 32.3125H86.4329L90.967 21.8636H91.8874ZM91.1534 33.4545L92.6619 24.4545H93.6335L93.4631 25.4943H93.5824C93.6733 25.3807 93.7983 25.2358 93.9574 25.0597C94.1193 24.8807 94.3366 24.7216 94.6094 24.5824C94.8849 24.4403 95.2358 24.3693 95.6619 24.3693C96.2131 24.3693 96.6747 24.5071 97.0469 24.7827C97.419 25.0582 97.6818 25.4489 97.8352 25.9545C97.9886 26.4602 98.0085 27.0568 97.8949 27.7443C97.7812 28.4375 97.5639 29.0384 97.2429 29.5469C96.9219 30.0526 96.5298 30.4446 96.0668 30.723C95.6037 30.9986 95.0994 31.1364 94.554 31.1364C94.1335 31.1364 93.8082 31.0668 93.5781 30.9276C93.348 30.7855 93.1804 30.625 93.0753 30.446C92.9702 30.2642 92.8892 30.1136 92.8324 29.9943H92.7472L92.1676 33.4545H91.1534ZM93.1051 27.7273C93.0256 28.2216 93.0256 28.6577 93.1051 29.0355C93.1875 29.4105 93.3509 29.7045 93.5952 29.9176C93.8423 30.1278 94.1676 30.233 94.571 30.233C94.9915 30.233 95.3594 30.1222 95.6747 29.9006C95.9929 29.6761 96.2543 29.375 96.4588 28.9972C96.6662 28.6165 96.8097 28.1932 96.8892 27.7273C96.9631 27.267 96.9602 26.8523 96.8807 26.483C96.8011 26.1108 96.6392 25.8168 96.3949 25.6009C96.1506 25.3821 95.8153 25.2727 95.3892 25.2727C94.9801 25.2727 94.6179 25.3764 94.3026 25.5838C93.9901 25.7884 93.7315 26.0753 93.527 26.4446C93.3253 26.8111 93.1847 27.2386 93.1051 27.7273ZM105.381 27.9318L99.4322 30.7273L99.6197 29.6364L104.154 27.608L104.12 27.6761L104.137 27.5057L104.171 27.5739L100.301 25.5455L100.472 24.4545L105.5 27.25L105.381 27.9318Z" fill="#727272"/>
<mask id="path-4-inside-1_156_10" fill="white">
<path d="M0 7C0 3.13401 3.13401 0 7 0H106C109.866 0 113 3.13401 113 7V35C113 38.866 109.866 42 106 42H7C3.13401 42 0 38.866 0 35V7Z"/>
</mask>
<path d="M0 0H113H0ZM114 35C114 39.4183 110.418 43 106 43H8C3.58172 43 0 39.4183 0 35C0 38.3137 3.13401 41 7 41H106C109.314 41 112 38.3137 112 35H114ZM0 42V0V42ZM106 0C110.418 0 114 3.58172 114 8V35C114 39.4183 110.418 43 106 43V41C109.314 41 112 38.3137 112 35V7C112 3.13401 109.314 0 106 0Z" fill="#08FDD8" mask="url(#path-4-inside-1_156_10)"/>
</svg>
