<svg width="81" height="81" viewBox="0 0 81 81" fill="none" xmlns="http://www.w3.org/2000/svg">
<path d="M55.3669 18.5659C54.9788 18.5659 54.7155 18.6131 54.4421 18.6773V18.7211H54.4894C54.6716 19.0721 54.9821 19.3286 55.2116 19.6425C55.3939 20.0036 55.5491 20.3648 55.7314 20.7225L55.7786 20.6719C56.0959 20.4491 56.2511 20.0914 56.2511 19.548C56.1161 19.3894 56.0959 19.2308 55.9811 19.0755C55.8461 18.8494 55.5559 18.738 55.3736 18.5591L55.3669 18.5659ZM19.4737 63.0956H16.3451C16.2571 58.1235 15.9531 53.1576 15.4339 48.2119H15.4069L10.6481 63.0956H8.26875L3.54375 48.2119H3.51C3.14042 53.1654 2.92094 58.1289 2.85188 63.0956H0C0.185625 56.4604 0.648 50.2369 1.38375 44.4319H5.265L9.77063 58.1479H9.79763L14.3438 44.4319H18.0394C18.8561 51.2325 19.3354 57.4594 19.4839 63.0956H19.4737ZM33.0311 49.3256C31.7554 56.2275 30.0746 61.2495 27.9956 64.3781C26.3689 66.7946 24.5869 67.9995 22.653 67.9995C22.1366 67.9995 21.5055 67.8443 20.7428 67.5338V65.8665C21.114 65.9239 21.5527 65.9543 22.0455 65.9543C22.95 65.9543 23.6756 65.7011 24.2291 65.205C24.894 64.5975 25.2248 63.9158 25.2248 63.1631C25.2248 62.64 24.9649 61.5769 24.4485 59.9771L21.0263 49.3256H24.0975L26.5511 57.2906C27.1046 59.0996 27.3375 60.3619 27.243 61.0808C28.593 57.4898 29.5312 53.5646 30.0611 49.3256H33.0311ZM74.628 63.0956H65.7518V44.4319H68.7386V60.8006H74.628V63.0956ZM63.423 63.5513L59.994 61.8638C60.2977 61.6073 60.5914 61.3305 60.8546 61.02C62.316 59.3123 63.0416 56.7743 63.0416 53.4161C63.0416 47.2399 60.6184 44.1484 55.7685 44.1484C53.3925 44.1484 51.5362 44.9314 50.1997 46.5008C48.7485 48.2153 48.0195 50.7398 48.0195 54.0776C48.0195 57.3581 48.6608 59.7679 49.9567 61.3001C51.138 62.6839 52.9166 63.3758 55.2994 63.3758C56.1904 63.3758 57.0071 63.2644 57.7463 63.045L62.2181 65.6505L63.4331 63.5513H63.423ZM52.3125 59.3595C51.5531 58.1445 51.1751 56.187 51.1751 53.5005C51.1751 48.7991 52.6061 46.4468 55.4614 46.4468C56.9565 46.4468 58.0601 47.0104 58.7588 48.1343C59.5147 49.356 59.8927 51.2933 59.8927 53.9494C59.8927 58.6879 58.4618 61.0639 55.6065 61.0639C54.1046 61.0639 53.0078 60.5003 52.3058 59.3764L52.3125 59.3595ZM46.7168 57.9251C46.7168 59.5114 46.1362 60.8141 44.9753 61.8266C43.8143 62.8391 42.2651 63.3454 40.3043 63.3454C38.4716 63.3454 36.7133 62.7649 34.9954 61.6073L35.7952 60.0008C37.2735 60.7433 38.6066 61.1078 39.8115 61.1078C40.932 61.1078 41.8129 60.8614 42.4541 60.3653C42.7746 60.1237 43.0334 59.8097 43.2094 59.4489C43.3854 59.0882 43.4735 58.6909 43.4666 58.2896C43.4666 57.1759 42.6904 56.2309 41.2796 55.4378C39.9701 54.7189 37.3545 53.2204 37.3545 53.2204C35.9302 52.1843 35.2215 51.0739 35.2215 49.248C35.2215 47.7293 35.7514 46.5143 36.8078 45.5861C37.8709 44.6479 39.2378 44.1855 40.9253 44.1855C42.6533 44.1855 44.2327 44.6445 45.6502 45.5693L44.9314 47.1758C43.7987 46.6782 42.5774 46.4142 41.3404 46.3995C40.3853 46.3995 39.6461 46.629 39.1331 47.0948C38.8728 47.3104 38.6629 47.5806 38.5183 47.8861C38.3737 48.1917 38.2979 48.5252 38.2961 48.8633C38.2961 49.9703 39.0859 50.922 40.5439 51.732C41.8702 52.4576 44.55 53.9933 44.55 53.9933C46.0114 55.0226 46.737 56.1195 46.737 57.9353L46.7168 57.9251ZM78.381 38.1746C76.5754 38.1274 75.1748 38.3096 74.0036 38.8091C73.6661 38.9441 73.1261 38.9441 73.0789 39.3728C73.2645 39.5516 73.2915 39.8453 73.4501 40.095C73.7201 40.5473 74.1859 41.1514 74.6179 41.4686C75.0904 41.8399 75.5629 42.1976 76.059 42.5149C76.9365 43.0549 77.9321 43.3755 78.7928 43.9189C79.2821 44.2361 79.7816 44.6378 80.2777 44.9753C80.5241 45.144 80.6827 45.4478 81 45.5558V45.4883C80.8447 45.2858 80.7975 44.9921 80.6456 44.766C80.4195 44.5399 80.1934 44.3374 79.9706 44.1146C79.308 43.2414 78.5172 42.4734 77.625 41.8365C76.9027 41.3438 75.3232 40.6553 75.0262 39.8284L74.9824 39.7811C75.4751 39.7373 76.0624 39.5584 76.5349 39.4234C77.301 39.2209 78.003 39.2648 78.7961 39.0656C79.1539 38.9745 79.515 38.8631 79.8761 38.7484V38.5459C79.4711 38.1409 79.1674 37.5908 78.7489 37.2128C77.5808 36.1917 76.335 35.263 75.0229 34.4351C74.3141 33.9829 73.4164 33.6926 72.6705 33.3079C72.4005 33.1729 71.9482 33.1054 71.793 32.8793C71.388 32.3865 71.1517 31.7318 70.8649 31.1445C70.2022 29.8589 69.5864 28.5497 69.0188 27.2194C68.6138 26.3351 68.3674 25.4543 67.8713 24.6443C65.5425 20.8069 63.0214 18.4815 59.1435 16.2068C58.3099 15.7343 57.3109 15.5318 56.2545 15.282C55.6909 15.255 55.1272 15.2145 54.567 15.1909C54.1957 15.0323 53.838 14.6036 53.5207 14.3978C52.2383 13.5878 48.9172 11.8328 47.9722 14.1548C47.3647 15.6195 48.8734 17.064 49.3965 17.8065C49.7846 18.3229 50.274 18.9135 50.544 19.494C50.7026 19.8855 50.7465 20.2871 50.9051 20.6955C51.2629 21.6878 51.6038 22.7948 52.0763 23.7229C52.3226 24.1954 52.5926 24.6915 52.9099 25.1168C53.0921 25.3631 53.4026 25.4779 53.4735 25.8829C53.1562 26.3419 53.136 27.0101 52.9537 27.5704C52.1437 30.1253 52.461 33.2843 53.6085 35.1641C53.9696 35.7244 54.8302 36.9664 55.9811 36.4905C56.9936 36.0855 56.7709 34.803 57.0611 33.6724C57.1286 33.4024 57.0848 33.2235 57.2231 33.0413V33.0919C57.5404 33.7264 57.8576 34.3305 58.1479 34.965C58.8431 36.072 60.0581 37.2195 61.074 37.9856C61.614 38.3906 62.0426 39.0926 62.7176 39.3424V39.2749H62.667C62.5219 39.0791 62.3295 38.9846 62.1472 38.826C61.7193 38.4071 61.3244 37.9558 60.966 37.476C60.0151 36.1767 59.1719 34.8019 58.4449 33.3653C58.0736 32.6565 57.7631 31.8938 57.4661 31.1951C57.3311 30.9251 57.3311 30.5201 57.105 30.3851C56.7675 30.8779 56.2714 31.3065 56.025 31.914C55.5964 32.886 55.5525 34.0808 55.3905 35.3228C55.2994 35.3464 55.3433 35.3228 55.2994 35.37C54.5771 35.1945 54.3307 34.4453 54.0607 33.8175C53.3857 32.2144 53.2744 29.6393 53.8582 27.7931C54.0169 27.3206 54.6919 25.8289 54.4219 25.3766C54.2801 24.948 53.8346 24.7016 53.5882 24.354C53.2713 23.9016 53 23.4188 52.7782 22.9129C52.2382 21.6506 51.9683 20.2534 51.381 18.9911C51.111 18.4073 50.6385 17.7964 50.2537 17.2598C49.8251 16.6523 49.3526 16.2236 49.0117 15.5048C48.9004 15.2584 48.7417 14.85 48.9206 14.58C48.9679 14.3978 49.0624 14.3269 49.2379 14.2763C49.5349 14.0333 50.3685 14.3505 50.6621 14.4855C51.4958 14.823 52.1978 15.1403 52.8964 15.6128C53.2136 15.8355 53.5545 16.2641 53.9595 16.3755H54.432C55.1543 16.5341 55.9676 16.4228 56.6426 16.6219C57.8408 17.0066 58.9208 17.5669 59.8894 18.1744C62.874 20.081 65.3016 22.7426 66.9262 25.8896C67.1963 26.4094 67.3144 26.8853 67.5607 27.4253C68.0332 28.539 68.6171 29.6629 69.0964 30.7395C69.5689 31.8026 70.0245 32.886 70.7029 33.7669C71.0404 34.2394 72.3971 34.4858 73.0046 34.7321C73.4535 34.9346 74.1521 35.1203 74.5571 35.3666C75.3334 35.8391 76.0894 36.3791 76.8184 36.8989C77.1896 37.1554 78.3135 37.719 78.381 38.1746Z" fill="#8892B0"/>
</svg>
