<svg width="81" height="81" viewBox="0 0 81 81" fill="none" xmlns="http://www.w3.org/2000/svg">
<g opacity="0.81">
<path d="M40.5 61.02C18.1237 61.02 0 51.84 0 40.5C0 29.16 18.1237 19.98 40.5 19.98C62.8763 19.98 81 29.16 81 40.5C81 51.84 62.8763 61.02 40.5 61.02ZM22.9837 34.1887C24.8062 34.1887 26.055 34.5262 26.6625 35.235C27.27 35.91 27.405 37.125 27.1012 38.7112C26.7637 40.5 26.1225 41.6475 25.1437 42.39C24.1987 43.1325 22.7475 43.5037 20.79 43.5037H17.8538L19.6425 34.1887H22.9837ZM11.1712 52.92H16.0312L17.1788 47.0137H21.33C23.1525 47.0137 24.6375 46.8112 25.8188 46.44C27 46.035 28.08 45.3937 29.0587 44.4825C29.8687 43.74 30.51 42.93 31.0162 42.0187C31.5225 41.1412 31.8937 40.1287 32.0625 39.0487C32.6025 36.4162 32.2313 34.3575 30.9487 32.9062C29.6325 31.4212 27.6075 30.7125 24.8062 30.7125H15.4913L11.1712 52.92ZM35.64 24.8062L31.32 47.0137H36.1125L38.61 34.29H42.4575C43.6725 34.29 44.4825 34.4925 44.8537 34.8975C45.225 35.3025 45.2925 36.045 45.09 37.125L43.1662 47.0137H48.06L50.0513 36.6525C50.49 34.56 50.1525 33.0412 49.14 32.0625C48.1275 31.1512 46.2712 30.7125 43.5713 30.7125H39.285L40.5 24.8062H35.64ZM60.75 34.1887C62.6063 34.1887 63.8213 34.5262 64.4287 35.235C65.0362 35.91 65.1712 37.125 64.8675 38.7112C64.53 40.5 63.8887 41.6475 62.9437 42.39C61.965 43.1325 60.5138 43.5037 58.5563 43.5037H55.6875L57.375 34.1887H60.75ZM48.9375 52.92H53.7975L54.945 47.0137H59.0625C60.9188 47.0137 62.4375 46.8112 63.6188 46.44C64.8 46.035 65.8125 45.3937 66.825 44.4825C67.635 43.74 68.31 42.93 68.7825 42.0187C69.2887 41.1412 69.66 40.1287 69.8625 39.0487C70.3688 36.4162 69.9975 34.3575 68.715 32.9062C67.5 31.4212 65.3738 30.7125 62.5725 30.7125H53.2912L48.9375 52.92Z" fill="#8892B0"/>
</g>
</svg>
