<svg width="81" height="81" viewBox="0 0 81 81" fill="none" xmlns="http://www.w3.org/2000/svg">
<path d="M40.5 34.1213C43.9762 34.1213 46.8112 36.9563 46.8112 40.5C46.8112 43.875 43.9762 46.7438 40.5 46.7438C37.0238 46.7438 34.1888 43.875 34.1888 40.5C34.1888 36.9563 37.0238 34.1213 40.5 34.1213ZM24.8737 67.5C27 68.7825 31.6575 66.825 37.0238 61.7625C35.2688 59.7713 33.5475 57.6113 31.9275 55.35C29.2078 55.0897 26.5039 54.6842 23.8275 54.135C22.1063 61.3575 22.7475 66.3188 24.8737 67.5ZM27.27 48.1275L26.2913 46.4063C25.92 47.385 25.5487 48.3638 25.3125 49.3088C26.2237 49.5113 27.2362 49.68 28.2825 49.8488L27.27 48.1275ZM49.3425 45.5625L52.0763 40.5L49.3425 35.4375C48.33 33.6488 47.25 32.0625 46.2713 30.4763C44.4487 30.375 42.525 30.375 40.5 30.375C38.475 30.375 36.5513 30.375 34.7288 30.4763C33.75 32.0625 32.67 33.6488 31.6575 35.4375L28.9237 40.5L31.6575 45.5625C32.67 47.3513 33.75 48.9375 34.7288 50.5238C36.5513 50.625 38.475 50.625 40.5 50.625C42.525 50.625 44.4487 50.625 46.2713 50.5238C47.25 48.9375 48.33 47.3513 49.3425 45.5625ZM40.5 22.8825C39.8587 23.625 39.1838 24.4013 38.5088 25.3125H42.4912C41.8162 24.4013 41.1413 23.625 40.5 22.8825ZM40.5 58.1175C41.1413 57.375 41.8162 56.5988 42.4912 55.6875H38.5088C39.1838 56.5988 39.8587 57.375 40.5 58.1175ZM56.0925 13.5C54 12.2175 49.3425 14.175 43.9762 19.2375C45.7313 21.2288 47.4525 23.3888 49.0725 25.65C51.84 25.92 54.5738 26.325 57.1725 26.865C58.8938 19.6425 58.2525 14.6813 56.0925 13.5ZM53.73 32.8725L54.7087 34.5938C55.08 33.615 55.4512 32.6363 55.6875 31.6913C54.7762 31.4888 53.7637 31.32 52.7175 31.1513L53.73 32.8725ZM58.6238 9.07878C63.585 11.9138 64.125 19.3725 62.0325 28.08C70.605 30.6113 76.7812 34.7963 76.7812 40.5C76.7812 46.2038 70.605 50.3888 62.0325 52.92C64.125 61.6275 63.585 69.0863 58.6238 71.9213C53.6963 74.7563 46.98 71.5163 40.5 65.34C34.02 71.5163 27.3037 74.7563 22.3425 71.9213C17.415 69.0863 16.875 61.6275 18.9675 52.92C10.395 50.3888 4.21875 46.2038 4.21875 40.5C4.21875 34.7963 10.395 30.6113 18.9675 28.08C16.875 19.3725 17.415 11.9138 22.3425 9.07878C27.3037 6.24378 34.02 9.48378 40.5 15.66C46.98 9.48378 53.6963 6.24378 58.6238 9.07878ZM57.645 40.5C58.7925 43.0313 59.805 45.5625 60.6487 48.1275C67.7362 46.0013 71.7188 42.9638 71.7188 40.5C71.7188 38.0363 67.7362 34.9988 60.6487 32.8725C59.805 35.4375 58.7925 37.9688 57.645 40.5ZM23.355 40.5C22.2075 37.9688 21.195 35.4375 20.3513 32.8725C13.2638 34.9988 9.28125 38.0363 9.28125 40.5C9.28125 42.9638 13.2638 46.0013 20.3513 48.1275C21.195 45.5625 22.2075 43.0313 23.355 40.5ZM53.73 48.1275L52.7175 49.8488C53.7637 49.68 54.7762 49.5113 55.6875 49.3088C55.4512 48.3638 55.08 47.385 54.7087 46.4063L53.73 48.1275ZM43.9762 61.7625C49.3425 66.825 54 68.7825 56.0925 67.5C58.2525 66.3188 58.8938 61.3575 57.1725 54.135C54.5738 54.675 51.84 55.08 49.0725 55.35C47.4525 57.6113 45.7313 59.7713 43.9762 61.7625ZM27.27 32.8725L28.2825 31.1513C27.2362 31.32 26.2237 31.4888 25.3125 31.6913C25.5487 32.6363 25.92 33.615 26.2913 34.5938L27.27 32.8725ZM37.0238 19.2375C31.6575 14.175 27 12.2175 24.8737 13.5C22.7475 14.6813 22.1063 19.6425 23.8275 26.865C26.5039 26.3159 29.2078 25.9103 31.9275 25.65C33.5475 23.3888 35.2688 21.2288 37.0238 19.2375Z" fill="#8892B0"/>
</svg>
