<svg width="1026" height="3076" viewBox="0 0 1026 3076" fill="none" xmlns="http://www.w3.org/2000/svg">
<path d="M512.5 13V43C512.5 62.331 512.5 92.5 512.5 92.5L501 104L512.5 115.5V354.5L524 366L512.5 377.5C512.5 377.5 512.5 410.716 512.5 432V977.5L503 987L512.5 996.5V1081C512.5 1081 512.5 1329.67 512.5 1489V1537L503.5 1546H288.5H0.5V2006.5H503.5L512 2015C512 2015 517.181 2009.82 520.5 2006.5H1025V2467.5C1025 2467.5 717.52 2467.5 520.5 2467.5M512.5 13L500 0.5H525L512.5 13ZM520.5 2467.5C513.861 2467.5 503.5 2467.5 503.5 2467.5L512 2476C512 2476 517.181 2470.82 520.5 2467.5ZM520.5 2467.5L512 2459C512 2459 512 2494.35 512 2517H1V2987.5V3031.5C1 3031.5 312.442 3031.5 512 3031.5V3069M512 3069H517.5L512 3074.5L506.5 3069H512Z" stroke="#08FDD8"/>
</svg>
