<svg width="81" height="81" viewBox="0 0 81 81" fill="none" xmlns="http://www.w3.org/2000/svg">
<g clip-path="url(#clip0_5_89)">
<path d="M56.6731 40.2401C57.0545 40.3853 57.4358 40.5067 57.8003 40.6721C59.3191 41.3573 60.2135 42.5385 60.3249 44.1956C60.4632 46.3354 60.4733 48.4852 60.3316 50.625C60.1662 53.0955 57.8847 54.9855 55.3265 54.9146C52.8458 54.8438 50.7061 52.8221 50.6116 50.3888C50.5542 48.9004 50.6015 47.4053 50.5913 45.9135C50.588 45.1069 50.5812 45.0967 49.7645 45.0934C45.1643 45.09 40.5642 45.1204 35.9641 45.0832C32.9671 45.0596 31.1682 46.71 30.9995 50.0107C30.9354 51.2933 30.662 52.4644 29.7946 53.4465C28.4547 54.9686 26.7638 55.4749 24.8266 55.0192C22.9569 54.5771 21.9005 53.2575 21.3335 51.4823C20.9386 50.2436 21.1445 48.9949 21.374 47.79C22.5249 41.7251 25.9842 37.6447 31.9208 35.7919C33.1284 35.4172 34.3859 35.2282 35.6502 35.2316C38.8227 35.235 41.9986 35.235 45.1711 35.2282C45.6031 35.2282 46.0385 35.1877 46.4705 35.1574C48.8397 34.9852 50.4057 33.4327 50.588 30.5944C50.6015 30.3784 50.588 30.159 50.5913 29.943C50.5884 28.6852 51.0794 27.4765 51.9587 26.577C52.8379 25.6776 54.0352 25.1593 55.2927 25.1336C57.9488 25.0357 60.146 26.9123 60.3316 29.5819C60.5881 33.237 59.4372 36.4871 57.2502 39.393C57.0477 39.6596 56.7642 39.879 56.6731 40.2401ZM27.8405 35.2215C26.9697 35.1945 25.9133 35.2822 24.8637 35.1034C23.0547 34.7996 21.9072 33.7871 21.4212 32.0119C20.8913 30.078 21.0938 28.3095 22.6058 26.865C24.1448 25.4002 25.9673 24.975 27.962 25.8019C29.717 26.5309 30.8611 28.269 30.9657 30.1657C31.0501 31.6642 30.9758 33.1695 30.9893 34.668C30.9927 35.0595 30.8442 35.2316 30.446 35.2249C29.636 35.2148 28.8293 35.2215 27.8405 35.2215ZM73.1768 0H7.82335C5.85233 0 3.96203 0.782986 2.56831 2.17671C1.17459 3.57043 0.391602 5.46073 0.391602 7.43175V72.6266C0.391602 74.8474 1.27379 76.9772 2.84411 78.5475C4.41442 80.1178 6.54422 81 8.76498 81H72.2386C74.4594 81 76.5892 80.1178 78.1595 78.5475C79.7298 76.9772 80.612 74.8474 80.612 72.6266V7.43175C80.6102 5.46069 79.8262 3.57092 78.4321 2.17749C77.038 0.784059 75.1479 0.000893499 73.1768 0V0ZM67.922 42.0964C69.6736 44.8099 70.3959 47.8001 70.2068 51.0638C70.0474 54.1547 68.8933 57.1114 66.9167 59.493C64.9401 61.8747 62.2467 63.5539 59.2381 64.2803C50.5137 66.3829 43.8279 61.1651 41.5767 54.8505C41.2088 53.8245 41.0367 52.7513 40.8207 51.5261C40.5912 52.9234 40.4326 54.189 39.9297 55.3534C37.5774 60.8107 33.5712 64.1385 27.5604 64.8C24.145 65.1909 20.7015 64.3602 17.8401 62.4551C14.9787 60.5499 12.884 57.6933 11.9274 54.3915C11.0836 51.4789 11.3367 48.4954 11.6979 45.5321C11.9679 43.3283 12.7812 41.2526 13.8309 39.2951C14.0232 38.9374 14.0232 38.6741 13.7971 38.3332C11.9037 35.4814 11.168 32.3359 11.4346 28.9373C11.5557 27.1331 12.0341 25.371 12.842 23.7533C15.2551 18.9878 20.5539 14.9411 27.6515 15.6128C33.8918 16.2034 39.6732 21.5865 40.5777 27.6412C40.6216 27.945 40.7093 28.242 40.8072 28.6909C40.9557 27.8775 41.0637 27.2092 41.2055 26.5444C42.3665 21.0431 47.753 15.2887 55.3839 15.2145C63.1194 15.1436 68.8501 21.2085 69.9301 26.8447C70.5038 29.8417 70.2305 32.8387 69.5825 35.8324C69.2045 37.5772 68.5362 39.2344 67.814 40.8679C67.6149 41.3269 67.6452 41.6644 67.922 42.0964Z" fill="#8892B0"/>
</g>
<defs>
<clipPath id="clip0_5_89">
<rect width="81" height="81" fill="white"/>
</clipPath>
</defs>
</svg>
